<svg width="148" height="148" viewBox="0 0 148 148" fill="none" xmlns="http://www.w3.org/2000/svg">
<rect width="148" height="148" fill="#3FA796"/>
<path d="M43.8574 87.8452V61.5012H38.6034C37.7648 61.5012 37.1728 60.4406 36.8274 58.3192C36.6794 57.2832 36.6054 56.2226 36.6054 55.1372C36.6054 54.0519 36.6794 52.9912 36.8274 51.9552C37.1728 49.8339 37.7648 48.7732 38.6034 48.7732H63.4674C64.3061 48.7732 64.8734 49.8339 65.1694 51.9552C65.3668 52.9912 65.4654 54.0519 65.4654 55.1372C65.4654 56.2226 65.3668 57.2832 65.1694 58.3192C64.8734 60.4406 64.3061 61.5012 63.4674 61.5012H58.5094V87.8452H63.6894C64.5281 87.8452 65.1201 88.9059 65.4654 91.0272C65.6628 92.0632 65.7614 93.1239 65.7614 94.2092C65.7614 95.2946 65.6628 96.3552 65.4654 97.3912C65.1201 99.5126 64.5281 100.573 63.6894 100.573H38.7514C37.9128 100.573 37.3454 99.5126 37.0494 97.3912C36.8521 96.3552 36.7534 95.2946 36.7534 94.2092C36.7534 93.1239 36.8521 92.0632 37.0494 91.0272C37.3454 88.9059 37.9128 87.8452 38.7514 87.8452H43.8574ZM70.698 97.1692V52.7692C70.698 51.5359 70.994 50.5739 71.586 49.8832C72.2274 49.1432 73.0414 48.7732 74.028 48.7732H86.386C94.23 48.7732 100.175 50.7466 104.22 54.6932C108.315 58.6399 110.362 64.8559 110.362 73.3412C110.362 91.4959 102.617 100.573 87.126 100.573H74.472C71.956 100.573 70.698 99.4386 70.698 97.1692ZM84.906 62.8332V84.9592C84.906 85.9952 84.98 86.6612 85.128 86.9572C85.276 87.2039 85.72 87.3272 86.46 87.3272C89.1734 87.3272 91.2207 86.3159 92.602 84.2932C94.0327 82.2706 94.748 78.9159 94.748 74.2292C94.748 69.4932 94.008 66.4099 92.528 64.9792C91.0974 63.5486 88.8034 62.8332 85.646 62.8332H84.906Z" fill="#FEC260"/>
</svg>
